<svg width="96" height="100" viewBox="0 0 96 100" fill="none" xmlns="http://www.w3.org/2000/svg">
<g clip-path="url(#clip0_317_3633)">
<path d="M87.3431 2.60972C87.1684 2.66798 86.9897 2.72235 86.815 2.77671C86.4227 2.90099 86.0305 3.02526 85.6382 3.1573C83.5334 3.8641 81.8207 4.82721 80.4538 6.0777L77.9683 4.99032C77.8401 4.92818 77.6576 4.85051 77.4168 4.80391C75.3392 4.41168 73.4362 4.2874 71.5993 4.43109C69.0284 4.62915 66.8032 5.27382 64.7876 6.40392C61.4672 8.26801 59.1565 11.1923 57.9255 15.0913C57.2226 17.3166 57.04 19.604 56.9274 21.5768C56.8109 23.5613 56.609 25.8409 56.0031 28.0312C55.8284 27.3167 55.6031 26.5904 55.3235 25.8487L55.2458 25.639C54.9352 24.8118 54.6439 24.0312 54.4303 23.2428C53.9643 21.5186 53.8517 19.9807 54.0924 18.5477C54.4653 16.2991 55.5565 14.5438 57.4206 13.1884C57.6264 13.0758 58.0536 12.8117 58.3643 12.2719L60.1507 9.15733L56.5624 9.31267C52.3837 9.4952 49.1837 11.3282 47.0439 14.7612C45.207 17.7127 44.2827 21.1302 44.2244 25.2118C44.2244 25.4759 44.2167 25.7322 44.2128 25.9924C43.8943 24.9399 43.4594 23.8992 42.8963 22.8661C42.4963 22.1283 41.9331 21.1729 41.1331 20.3069L36.5739 15.3748L37.7351 21.9924L37.7467 22.0623C37.7778 22.2681 37.8089 22.4739 37.8438 22.6797C38.0574 24.0429 38.2632 25.3283 38.2516 26.5943C38.2399 27.9419 38.0574 28.8506 37.638 29.6235C37.436 29.9963 37.0749 30.3575 36.6593 30.773C36.5584 30.8778 36.4535 30.9788 36.3525 31.0837C35.805 31.6468 35.2418 32.1866 34.6516 32.7613C33.8438 33.5381 33.0127 34.3458 32.2166 35.2002C31.7661 35.608 31.502 36.0973 31.4399 36.6565L31.4205 36.8313C28.2981 37.7594 25.3855 39.1963 22.7719 41.0449L20.7563 40.4624C17.9641 39.6585 15.2184 38.9206 12.3136 38.7886C10.733 38.7148 8.87276 38.7381 7.04363 39.4526C4.18536 40.5633 3.13293 42.5944 2.75234 44.1012C2.36399 45.6352 2.50768 47.2585 3.17953 48.9245C4.10769 51.2275 5.49799 53.1459 6.60479 54.5595C6.7679 54.7692 7.00479 54.9945 7.32324 55.1615C6.32906 55.5188 5.61449 56.4663 5.61449 57.5848V76.649C5.61449 78.0703 6.77178 79.2237 8.18927 79.2237H12.4844C17.2184 89.8529 27.6651 97.2355 39.7933 97.2355C49.4788 97.2355 58.0886 92.5248 63.576 85.216C63.7158 85.2743 63.8634 85.317 64.0148 85.3442C64.6245 85.449 66.0847 85.6665 67.9216 85.6665C71.5139 85.6665 76.543 84.8432 79.4402 80.7733C80.6246 79.1072 81.0324 77.2121 80.6169 75.2897C80.1819 73.282 78.912 71.4917 77.5217 70.0509V63.9188C78.6518 63.647 79.4984 62.6295 79.4984 61.4178V53.0799C79.4984 52.2488 79.1023 51.511 78.4887 51.0411H78.9198H78.9819C79.8829 50.9867 80.6518 50.3343 80.8576 49.4527C81.6771 45.8721 82.0693 41.3789 81.8557 38.0002C81.6343 34.4934 80.9392 30.9439 79.7936 27.4565L79.7858 27.4293C79.7469 27.3167 79.7042 27.1885 79.6537 27.0526C79.813 27.2623 80.0071 27.4448 80.2402 27.5846C80.5741 27.7866 80.947 27.8914 81.3314 27.8914C81.6421 27.8914 81.9567 27.8254 82.2596 27.6895C82.3062 27.6701 82.3955 27.639 82.4848 27.6079L82.5508 27.5846C85.2577 26.6681 87.0984 24.7069 87.8752 21.9147C88.4926 19.6933 88.0033 17.569 87.646 16.0156L86.714 11.9729C86.8732 11.4525 87.0052 10.9399 87.1373 10.4389C87.2072 10.1787 87.2732 9.91462 87.347 9.65442C87.6072 8.70296 87.9062 7.70878 88.446 6.91654C88.6635 6.5981 88.9431 6.27965 89.3237 5.91071L95.4635 0L87.3431 2.60972ZM82.547 17.8719C82.213 18.1826 81.9334 18.4351 81.6693 18.6603C79.2421 20.7341 79.0673 23.4564 79.2149 25.8448C79.2227 25.9885 79.2499 26.1283 79.2809 26.2642C79.1994 26.1477 79.1023 26.0234 78.978 25.9069L75.3353 22.3807L75.6304 27.4409C75.8712 31.5536 75.2615 35.4798 73.8168 39.1808C73.9139 37.2235 73.7663 35.2507 73.3663 33.2662C73.2925 32.905 73.2188 32.5439 73.145 32.1827C72.8925 30.9749 72.6556 29.8332 72.5197 28.6798C72.2401 26.2953 72.0731 24.1322 72.011 22.0739C71.9566 20.2098 72.0382 18.5904 72.2673 17.1302C72.8382 13.4797 74.5508 10.7923 77.5023 8.91655C77.6499 8.82335 77.8013 8.73015 77.9566 8.63306L78.644 8.20975C78.6246 8.23694 78.6091 8.26024 78.5897 8.28743C77.3741 10.1709 76.7528 11.8913 76.6324 13.701C76.5469 14.9671 76.6324 16.1865 76.7178 17.2273C76.7489 17.5846 76.8265 18.5321 77.7469 19.0953C78.1198 19.3244 78.4848 19.3982 78.811 19.3982C79.2926 19.3982 79.6848 19.2351 79.8829 19.1535C81.0402 18.6719 82.0188 18.0001 82.9237 17.3516C83.0674 17.2506 83.2033 17.1457 83.3353 17.0409C83.1334 17.3011 82.8693 17.569 82.5431 17.8758L82.547 17.8719Z" fill="#F2CC81"/>
<path d="M87.1334 3.29323C86.9586 3.35149 86.78 3.40586 86.6052 3.46022C86.213 3.5845 85.8208 3.70877 85.4285 3.84081C83.3237 4.54761 81.611 5.51072 80.244 6.76121L77.7586 5.67383C77.6304 5.61169 77.4479 5.53402 77.2071 5.48742C75.1294 5.09519 73.2265 4.97091 71.3896 5.1146C68.8187 5.31266 66.5935 5.95733 64.5779 7.08743C61.2575 8.95152 58.9468 11.8758 57.7157 15.7749C57.0128 18.0001 56.8303 20.2875 56.7177 22.2603C56.6012 24.2448 56.3992 26.5244 55.7934 28.7147C55.6186 28.0002 55.3934 27.2739 55.1138 26.5322L55.0361 26.3225C54.7254 25.4953 54.4342 24.7147 54.2206 23.9264C53.7546 22.2021 53.6419 20.6642 53.8827 19.2312C54.2555 16.9826 55.3468 15.2273 57.2109 13.8719C57.4167 13.7593 57.8439 13.4952 58.1546 12.9554L59.941 9.84084L56.3526 9.99618C52.174 10.1787 48.974 12.0117 46.8341 15.4448C44.9972 18.3962 44.073 21.8137 44.0147 25.8953C44.0147 26.1594 44.0069 26.4157 44.003 26.6759C43.6846 25.6235 43.2496 24.5827 42.6865 23.5497C42.2865 22.8118 41.7234 21.8564 40.9234 20.9904L36.3642 16.0584L37.5253 22.6759L37.537 22.7458C37.5681 22.9516 37.5991 23.1574 37.6341 23.3632C37.8477 24.7264 38.0535 26.0118 38.0419 27.2778C38.0302 28.6254 37.8477 29.5342 37.4283 30.307C37.2263 30.6798 36.8651 31.041 36.4496 31.4565C36.3486 31.5614 36.2438 31.6623 36.1428 31.7672C35.5952 32.3303 35.0321 32.8701 34.4418 33.4449C33.6341 34.2216 32.803 35.0293 32.0069 35.8837C31.5564 36.2915 31.2923 36.7808 31.2302 37.34L31.2107 37.5148C28.0884 38.4429 25.1758 39.8798 22.5622 41.7284L20.5466 41.1459C17.7544 40.342 15.0087 39.6041 12.1038 39.4721C10.5233 39.3983 8.66305 39.4216 6.83391 40.1362C3.97564 41.2468 2.92321 43.2779 2.54262 44.7847C2.15427 46.3187 2.29796 47.942 2.96981 49.6081C3.89797 51.911 5.28827 53.8294 6.39507 55.243C6.55818 55.4527 6.79508 55.678 7.11352 55.845C6.11934 56.2023 5.40478 57.1498 5.40478 58.2683V77.3325C5.40478 78.7538 6.56206 79.9073 7.97955 79.9073H12.2747C17.0087 90.5364 27.4554 97.919 39.5836 97.919C49.2691 97.919 57.8789 93.2083 63.3663 85.8995C63.5061 85.9578 63.6536 86.0005 63.8051 86.0277C64.4148 86.1325 65.875 86.35 67.7119 86.35C71.3042 86.35 76.3333 85.5267 79.2304 81.4568C80.4149 79.7907 80.8227 77.8956 80.4071 75.9733C79.9722 73.9655 78.7023 72.1752 77.312 70.7344V64.6023C78.4421 64.3305 79.2887 63.313 79.2887 62.1013V53.7634C79.2887 52.9323 78.8926 52.1945 78.279 51.7246H78.71H78.7722C79.6731 51.6702 80.4421 51.0178 80.6479 50.1362C81.4673 46.5556 81.8596 42.0624 81.646 38.6837C81.4246 35.1769 80.7295 31.6274 79.5838 28.14L79.5761 28.1128C79.5372 28.0002 79.4945 27.872 79.444 27.7361C79.6032 27.9458 79.7974 28.1283 80.0304 28.2681C80.3644 28.4701 80.7372 28.5749 81.1217 28.5749C81.4324 28.5749 81.7469 28.5089 82.0499 28.373C82.0965 28.3536 82.1858 28.3225 82.2751 28.2914L82.3411 28.2681C85.0479 27.3516 86.8887 25.3904 87.6654 22.5982C88.2829 20.3768 87.7936 18.2525 87.4363 16.6991L86.5043 12.6564C86.6635 12.136 86.7955 11.6234 86.9276 11.1224C86.9975 10.8622 87.0635 10.5981 87.1373 10.3379C87.3975 9.38647 87.6965 8.39229 88.2363 7.60005C88.4538 7.2816 88.7334 6.96316 89.114 6.59422L95.2616 0.679626L87.1412 3.28935L87.1334 3.29323ZM82.3372 18.5555C82.0033 18.8661 81.7236 19.1186 81.4596 19.3438C79.0324 21.4176 78.8576 24.14 79.0052 26.5283C79.013 26.672 79.0401 26.8118 79.0712 26.9477C78.9896 26.8312 78.8926 26.707 78.7683 26.5905L75.1255 23.0642L75.4207 28.1244C75.6615 32.2371 75.0518 36.1633 73.6071 39.8643C73.7042 37.907 73.5566 35.9342 73.1566 33.9497C73.0828 33.5885 73.009 33.2274 72.9352 32.8662C72.6828 31.6584 72.4459 30.5167 72.31 29.3633C72.0304 26.9788 71.8634 24.8157 71.8013 22.7574C71.7469 20.8933 71.8284 19.2739 72.0576 17.8137C72.6285 14.1632 74.3411 11.4758 77.2926 9.60006C77.4401 9.50686 77.5916 9.41366 77.7469 9.31657L78.4343 8.89326C78.4149 8.92045 78.3994 8.94375 78.3799 8.97093C77.1644 10.8544 76.543 12.5748 76.4226 14.3846C76.3372 15.6506 76.4226 16.87 76.5081 17.9108C76.5391 18.2681 76.6168 19.2157 77.5372 19.7788C77.91 20.0079 78.2751 20.0817 78.6013 20.0817C79.0829 20.0817 79.4751 19.9186 79.6731 19.837C80.8304 19.3555 81.8091 18.6836 82.7139 18.0351C82.8576 17.9341 82.9936 17.8292 83.1256 17.7244C82.9237 17.9846 82.6596 18.2525 82.3334 18.5593L82.3372 18.5555Z" stroke="#633415" stroke-width="2.02" stroke-linejoin="round"/>
<path d="M29.2536 52.0935C29.2536 52.0935 28.4148 51.7751 28.7099 51.0022C32.2439 41.8527 37.7119 41.1692 37.7119 41.1692C38.0964 41.1109 38.1003 41.1187 38.1003 41.5109C38.1003 44.0508 38.1003 46.5867 38.1003 49.1265C38.1003 49.309 38.2518 49.4605 38.4343 49.4566L39.743 49.445C39.9255 49.445 40.0731 49.2974 40.0692 49.1149C40.0576 46.6178 40.0692 43.9537 40.0576 41.4682C40.0576 41.2702 40.0964 41.2003 40.31 41.2041C41.1256 41.2119 41.8712 41.4527 42.5819 41.8255C43.8673 42.4896 44.9042 43.4566 45.844 44.5362C47.1062 45.9886 48.1198 47.6042 48.9353 49.3479C48.9741 49.4333 48.9703 49.5692 49.1256 49.5692C49.7586 49.5692 50.3916 49.5692 51.0596 49.5692C50.0615 47.2585 48.8227 45.1459 47.3042 43.1808C47.4518 43.1381 47.5489 43.2041 47.646 43.2391C50.9858 44.3886 53.8829 46.2488 56.38 48.742C56.6557 49.0178 56.8888 49.3207 57.2227 49.4605C57.5606 49.6003 57.9956 49.5731 58.3878 49.5731C59.3276 49.5731 60.2674 49.5731 61.2655 49.5731C60.147 48.0857 58.9509 46.7653 57.6111 45.577C53.0169 41.4993 47.6809 39.1032 41.545 38.5439C38.411 38.2565 35.3158 38.5129 32.2673 39.2896C27.8129 40.4274 23.8789 42.5439 20.4575 45.6119C18.2633 47.5809 16.438 49.8488 14.9973 52.4236C14.904 52.5906 14.9079 52.6877 15.0555 52.8159L17.4089 54.1091C17.5798 54.1557 17.6342 54.0663 17.7079 53.9382C17.8711 53.6586 18.0419 53.3828 18.2322 53.1226C18.5235 52.7265 18.7992 52.6294 19.4633 52.7654L25.5138 54.0741C25.6264 54.0974 25.7391 54.1091 25.8556 54.1091C29.6653 54.1013 33.4711 54.1052 37.2809 54.1052C37.3314 54.1052 37.3741 54.0663 37.378 54.012L37.4168 52.4547L29.2459 52.0896L29.2536 52.0935ZM20.939 50.61C20.5869 50.522 20.4497 50.4094 20.5274 50.2721C20.8963 49.6391 21.3662 49.0877 21.8905 48.5828C24.1274 46.4236 26.6789 44.7304 29.5488 43.5304C29.8789 43.3906 30.2168 43.2663 30.6401 43.1731C30.174 44.008 29.7468 44.777 29.3197 45.5498C28.2284 47.511 27.1371 49.4721 26.0536 51.4372L20.939 50.6139V50.61Z" fill="#C71E36"/>
<path d="M19.9952 43.0527C19.0865 43.942 18.2399 44.7731 17.3894 45.6003C17.1797 45.8061 16.9467 45.9925 16.7525 46.2139C16.5001 46.5013 16.1894 46.5789 15.8282 46.5479C14.8418 46.4624 13.8554 46.3731 12.869 46.2915C11.9214 46.2139 10.9738 46.144 10.0224 46.0741C9.84761 46.0624 9.66897 46.0624 9.49421 46.0974C8.96605 46.21 8.74081 46.5789 8.88838 47.1032C8.94275 47.2935 9.03595 47.4644 9.13304 47.6352C10.4573 49.9964 12.069 52.1323 14.003 54.0275C14.0224 54.0469 14.0418 54.0702 14.0612 54.0974C13.9913 54.1828 13.8981 54.1401 13.8166 54.1401C11.9719 54.1401 10.1272 54.1401 8.27867 54.1401C8.1544 54.1401 8.03789 54.1634 7.93692 54.0314C6.68643 52.4353 5.55244 50.7654 4.79127 48.8741C4.32136 47.7129 4.13495 46.509 4.44564 45.2741C4.86506 43.6119 5.98739 42.5867 7.5408 41.9808C8.98158 41.4216 10.4884 41.3828 12.0068 41.4527C14.7098 41.577 17.3001 42.2721 19.9952 43.0488V43.0527ZM38.5002 94.7035C38.5002 91.5034 38.5002 88.3073 38.5002 85.1073C38.5002 84.5286 38.4885 83.95 38.5041 83.3714C38.508 83.1539 38.4381 83.1034 38.2361 83.1228C37.8283 83.1655 37.4167 83.1888 37.005 83.2277C34.24 83.4801 31.5526 84.0743 28.9506 85.0607C28.7176 85.15 28.706 85.2122 28.838 85.4141C30.6866 88.2801 32.9235 90.7966 35.5837 92.9365C36.5002 93.6704 37.4516 94.3578 38.4963 95.0258V94.7035H38.5002ZM33.871 95.0607C31.3235 92.1869 28.772 89.3131 26.2283 86.4316C26.0885 86.2724 25.9992 86.2607 25.8244 86.3656C24.5001 87.1656 23.1681 87.9578 21.8321 88.7423C21.6418 88.8549 21.6185 88.9015 21.7972 89.0529C24.2283 91.119 26.8729 92.8277 29.8555 93.9967C31.1798 94.5171 32.5351 94.9171 33.9914 95.2083C33.9215 95.119 33.8982 95.0879 33.8749 95.0607H33.871ZM15.6923 81.1616C16.8185 83.2898 18.1661 85.1966 19.7389 86.9481C19.8399 87.0607 19.9098 87.0258 20.0108 86.9675C21.6885 85.9461 23.3622 84.9287 25.0438 83.9151C25.1681 83.8413 25.172 83.7869 25.1098 83.6665C24.7098 82.8898 24.3525 82.0937 24.0224 81.2859C23.9836 81.1888 23.9448 81.1189 23.8166 81.1228L15.6923 81.1655V81.1616ZM26.5623 81.1189C26.8069 81.6238 27.0322 82.0859 27.2535 82.5558C27.3079 82.6723 27.3895 82.6257 27.4749 82.6063C28.2322 82.4471 28.9856 82.2956 29.7429 82.1364C31.2924 81.8141 32.8419 81.4879 34.3914 81.1616V81.1189H26.5623ZM41.1526 95.0219C42.1973 94.3539 43.1488 93.6705 44.0653 92.9326C46.7255 90.7966 48.9624 88.2762 50.8109 85.4102C50.9391 85.2083 50.9275 85.1461 50.6983 85.0568C48.1003 84.0704 45.4129 83.4762 42.6439 83.2238C42.2323 83.185 41.8245 83.1655 41.4128 83.1189C41.2109 83.0956 41.141 83.15 41.1449 83.3675C41.1604 83.9461 41.1488 84.5248 41.1488 85.1034C41.1488 88.3034 41.1488 91.4996 41.1488 94.6996V95.0219H41.1526ZM45.7391 95.2083C47.1915 94.9209 48.5507 94.5171 49.875 93.9967C52.8537 92.8277 55.5022 91.119 57.9333 89.0529C58.112 88.9015 58.0848 88.8549 57.8984 88.7423C56.5624 87.9578 55.2343 87.1656 53.9061 86.3656C53.7275 86.2568 53.642 86.2724 53.5022 86.4316C50.9585 89.3131 48.4071 92.1869 45.8595 95.0607C45.8323 95.0879 45.8129 95.119 45.743 95.2083H45.7391ZM55.9139 81.0762C55.7857 81.0762 55.7469 81.1422 55.7081 81.2393C55.378 82.0471 55.0207 82.8432 54.6207 83.6199C54.5585 83.7403 54.5624 83.7947 54.6867 83.8685C56.3683 84.8821 58.0421 85.9034 59.7197 86.9209C59.8207 86.983 59.8867 87.018 59.9916 86.9015C61.5644 85.15 62.912 83.2432 64.0382 81.115L55.9139 81.0723V81.0762ZM45.343 81.1189V81.1616C46.8886 81.4879 48.4381 81.8141 49.9876 82.1364C50.7449 82.2956 51.4983 82.4471 52.2556 82.6063C52.341 82.6257 52.4226 82.6723 52.477 82.5558C52.6983 82.0898 52.9236 81.6238 53.1682 81.1189H45.343ZM72.7373 77.8373L67.4052 79.1733C67.2848 79.2043 67.18 79.2781 67.114 79.3791L64.0615 83.8879C64.0071 83.9655 64.0537 84.0743 64.1469 84.0898C65.5334 84.3306 73.9023 85.5423 77.6227 80.3189C81.6888 74.614 71.6771 68.8004 71.6771 68.8004L70.7295 71.8878C70.446 72.8082 70.5547 73.8063 71.0324 74.6451L73.0169 76.9636C73.2771 77.2665 73.1256 77.7364 72.7412 77.8335L72.7373 77.8373Z" fill="#C71E36"/>
<path d="M42.5429 53.1693H76.7062C77.0363 53.1693 77.3043 53.4372 77.3043 53.7673V62.1052C77.3043 62.4353 77.0363 62.7033 76.7062 62.7033H68.8965C68.5664 62.7033 68.2984 62.9712 68.2984 63.3013V72.4354C68.2984 72.7655 68.0304 73.0334 67.7003 73.0334H64.3955C64.0654 73.0334 63.7974 73.3014 63.7974 73.6315V77.3325C63.7974 77.6626 63.5294 77.9306 63.1993 77.9306H7.97184C7.64174 77.9306 7.37378 77.6626 7.37378 77.3325V58.2683C7.37378 57.9382 7.64174 57.6702 7.97184 57.6702H41.3429C41.673 57.6702 41.941 57.4023 41.941 57.0722V53.7673C41.941 53.4372 42.2128 53.1693 42.5429 53.1693Z" fill="#C71E36"/>
<path d="M49.8867 56.2178H46.842V68.8004H49.8867V56.2178Z" fill="#F7E1C4"/>
<path d="M52.1392 56.2178V59.2625H61.413V68.8004H64.4577V59.2625H73.8636V56.2178H52.1392Z" fill="#F7E1C4"/>
<path d="M42.209 71.1849V61.647H39.2925V74.2296V74.3616H58.7644V71.1849H42.209Z" fill="#F7E1C4"/>
<path d="M35.1566 68.0121L37.044 65.7519V61.6509H10.8186V74.2335H34.4537L37.044 71.1733V69.814L35.1566 68.0121ZM32.5391 64.6956V66.6839H13.8633V64.6956H32.5391ZM13.8633 71.1849V69.0645H32.5391V71.1849H13.8633Z" fill="#F7E1C4"/>
<path d="M68.3257 49.6041C68.5043 49.5964 68.8927 49.5032 68.9781 49.3439C69.347 48.6488 69.6655 47.8449 69.9645 47.1187C71.6733 42.9827 72.1005 38.7264 71.2228 34.338C70.9082 32.7613 70.5393 31.1963 70.349 29.5963C70.0849 27.3438 69.8946 25.0836 69.8247 22.8156C69.7703 21.037 69.8286 19.2661 70.1043 17.5069C70.7451 13.4175 72.7063 10.1748 76.2325 7.93012C76.4655 7.78255 76.7024 7.63886 76.9587 7.47963C76.8966 7.45245 76.8694 7.43691 76.8422 7.42915C75.0908 7.09905 73.3238 6.94759 71.5412 7.08351C69.4247 7.24662 67.4053 7.76701 65.5451 8.81168C62.5237 10.5088 60.6324 13.103 59.5994 16.369C58.9819 18.3224 58.8072 20.3457 58.6868 22.3729C58.5314 25.0448 58.2441 27.6895 57.3897 30.2448C57.1411 30.9904 56.8926 31.7283 56.4149 32.3769C55.7975 33.2196 55.0402 33.938 54.3567 34.7186C54.1974 34.9011 54.0421 35.0914 53.8402 35.3283C53.9178 35.0215 53.9877 34.7885 54.0343 34.5477C54.5431 32.0235 54.147 29.5885 53.2615 27.2157C52.9159 26.2953 52.5664 25.3826 52.3101 24.4312C51.8168 22.6098 51.6188 20.769 51.9295 18.8972C52.3955 16.0816 53.8091 13.8564 56.1314 12.202C56.2285 12.1321 56.3567 12.1049 56.4382 11.9612C52.9897 12.1088 50.3217 13.5729 48.512 16.4816C46.7178 19.3632 46.0421 22.571 45.9916 25.9186C45.9683 27.639 45.9411 29.3516 45.5916 31.0409C45.1178 33.3439 44.2401 35.4448 42.5624 37.1497C42.543 37.1691 42.5391 37.1963 42.5081 37.2584C42.6983 37.2817 42.8537 37.2973 43.009 37.3206C44.8382 37.5808 46.6285 38.008 48.3838 38.5905C50.8149 39.3905 53.1062 40.4934 55.2499 41.8798C57.0363 43.0332 58.7062 44.342 60.2169 45.8488C61.2616 46.8973 62.2596 47.9808 63.18 49.142C63.3781 49.3905 63.4985 49.6391 64.0344 49.5808L68.3257 49.5886V49.6041Z" fill="#C71E36"/>
<path d="M78.6479 49.7556C78.679 49.7556 78.7101 49.7284 78.7178 49.6974C79.4674 46.4275 79.8829 42.1478 79.6693 38.8119C79.4518 35.3788 78.7761 32.0313 77.7004 28.7613C77.6576 28.6293 77.6149 28.5011 77.5644 28.373C77.5178 28.2565 77.5101 28.1244 77.3936 28.0079C77.8674 36.0934 75.211 43.4138 70.0382 49.6042C69.9955 49.6547 70.0343 49.7284 70.1003 49.7246L78.6518 49.7517L78.6479 49.7556Z" fill="#C71E36"/>
<path d="M39.4711 22.338C40.0769 22.9943 40.5313 23.7322 40.9507 24.4972C42.1623 26.7264 42.7992 29.0876 42.6051 31.6429C42.4575 33.5769 41.7856 35.3245 40.7177 36.9323C40.64 37.0488 40.5584 37.107 40.407 37.0993C38.007 36.9711 35.6225 37.1342 33.2613 37.5808C33.2419 37.5808 33.2225 37.5808 33.1914 37.5731C33.2069 37.4294 33.3312 37.3672 33.4128 37.2818C34.737 35.8488 36.1972 34.5478 37.5604 33.1536C38.1429 32.5594 38.7643 32.0002 39.172 31.2546C39.84 30.0196 40.0147 28.6798 40.0225 27.3011C40.0342 25.6623 39.7429 24.0623 39.4944 22.4545C39.4905 22.4196 39.4827 22.3807 39.4749 22.3458L39.4711 22.338Z" fill="#C71E36"/>
<path d="M85.5062 17.1496C85.8829 18.7846 86.2208 20.4156 85.7587 22.0739C85.1645 24.2176 83.8286 25.6817 81.7043 26.404C81.5489 26.4545 81.3936 26.505 81.246 26.571C81.0713 26.6487 80.9897 26.5788 80.9781 26.4079C80.8499 24.3263 81.0014 22.338 82.7451 20.8506C83.0674 20.5749 83.3781 20.2914 83.6888 20.004C84.5392 19.2117 85.3121 18.3651 85.5101 17.1496H85.5062Z" fill="#C71E36"/>
<path d="M87.7393 5.17674C87.3121 5.58839 86.9277 6.01169 86.6014 6.48936C85.9102 7.50296 85.5451 8.65248 85.2267 9.81754C84.9354 10.8777 84.6985 11.9496 84.3102 12.9826C83.7665 14.4312 82.8073 15.5418 81.5645 16.4312C80.7257 17.0331 79.8752 17.6156 78.916 18.0156C78.5315 18.1749 78.5121 18.1593 78.4771 17.7554C78.3878 16.6797 78.3218 15.604 78.3956 14.5205C78.5082 12.8622 79.1567 11.4175 80.0422 10.0428C81.483 7.80588 83.6073 6.53985 86.0578 5.71654C86.617 5.53014 87.1801 5.35538 87.7393 5.17285V5.17674Z" fill="#C71E36"/>
<path d="M48.3836 38.6099C48.5351 38.6604 48.6788 38.7148 48.8302 38.7653C48.6011 37.3012 48.2982 35.8488 47.9176 34.408C47.8827 34.2759 47.8477 34.1439 47.805 34.0119C47.7662 33.8953 47.7662 33.7594 47.6535 33.639C47.6535 35.2352 47.5409 36.7769 47.3157 38.2798C47.673 38.3847 48.0302 38.4934 48.3875 38.6099H48.3836Z" fill="#C71E36"/>
<path d="M61.3547 47.0333C61.4634 46.3886 63.3508 35.0022 62.1663 29.9419C62.1663 29.9264 62.143 29.9303 62.1391 29.9419C62.0071 30.9672 60.4498 42.3537 56.908 43.0216C56.8964 43.0216 56.8925 43.0372 56.9003 43.0449C57.1954 43.2896 60.5469 46.0663 61.3314 47.0411C61.3391 47.0488 61.3508 47.045 61.3547 47.0333Z" fill="#C71E36"/>
</g>
<defs>
<clipPath id="clip0_317_3633">
<rect width="95.3194" height="100" fill="white" transform="translate(0.329834)"/>
</clipPath>
</defs>
</svg>
