<svg width="228" height="100" viewBox="0 0 228 100" fill="none" xmlns="http://www.w3.org/2000/svg">
<g clip-path="url(#clip0_317_3751)">
<path d="M5.87078 11.8474C5.08109 11.4224 4.46157 10.8355 4.00956 10.0839C3.55755 9.33236 3.33154 8.48252 3.33154 7.53441C3.33154 6.58631 3.55755 5.73646 4.00956 4.98488C4.46157 4.2333 5.08109 3.64372 5.87078 3.22146C6.66047 2.79654 7.54854 2.58673 8.53233 2.58673C9.36191 2.58673 10.1144 2.7328 10.7844 3.02493C11.4545 3.31707 12.0181 3.73668 12.4755 4.28376L11.053 5.59571C10.4042 4.84944 9.60121 4.47498 8.64401 4.47498C8.05107 4.47498 7.52196 4.60511 7.05665 4.86537C6.59134 5.12564 6.22708 5.48682 5.96916 5.95158C5.70859 6.41634 5.57831 6.94483 5.57831 7.53707C5.57831 8.1293 5.70859 8.6578 5.96916 9.12256C6.22973 9.58732 6.59134 9.95115 7.05665 10.2088C7.52196 10.469 8.05107 10.5992 8.64401 10.5992C9.60121 10.5992 10.4042 10.222 11.053 9.46515L12.4755 10.7771C12.0181 11.3322 11.4545 11.7571 10.7791 12.0492C10.1037 12.3413 9.35127 12.4874 8.51904 12.4874C7.54323 12.4874 6.66047 12.2749 5.87078 11.8527V11.8474Z" fill="#1A1A1A"/>
<path d="M14.9456 11.3481C14.1825 10.5912 13.8022 9.51028 13.8022 8.10804V2.74872H16.0198V8.02571C16.0198 9.73868 16.7323 10.5965 18.1549 10.5965C18.8488 10.5965 19.3779 10.3893 19.7422 9.97504C20.1065 9.56074 20.2899 8.91008 20.2899 8.02571V2.74872H22.4809V8.10804C22.4809 9.51294 22.1006 10.5912 21.3375 11.3481C20.5744 12.105 19.5109 12.4821 18.1416 12.4821C16.7722 12.4821 15.706 12.105 14.9456 11.3481Z" fill="#1A1A1A"/>
<path d="M26.6233 11.8421C25.8257 11.4145 25.2008 10.8223 24.7488 10.0707C24.2968 9.31909 24.0708 8.47456 24.0708 7.53442C24.0708 6.59428 24.2968 5.74975 24.7488 4.99817C25.2008 4.24659 25.8257 3.65701 26.6233 3.22678C27.421 2.7992 28.3197 2.58408 29.3141 2.58408C30.3086 2.58408 31.2046 2.7992 31.997 3.22678C32.792 3.65436 33.4168 4.24659 33.8715 4.99817C34.3288 5.74975 34.5548 6.59694 34.5548 7.53442C34.5548 8.47191 34.3261 9.31909 33.8715 10.0707C33.4141 10.8223 32.7893 11.4118 31.997 11.8421C31.2019 12.2696 30.3086 12.4848 29.3141 12.4848C28.3197 12.4848 27.4237 12.2696 26.6233 11.8421ZM30.8457 10.2088C31.303 9.94851 31.6593 9.58733 31.9198 9.12257C32.1804 8.65781 32.3107 8.12931 32.3107 7.53708C32.3107 6.94484 32.1804 6.41635 31.9198 5.95159C31.6593 5.48683 31.3003 5.12299 30.8457 4.86538C30.3883 4.60512 29.8778 4.47499 29.3115 4.47499C28.7451 4.47499 28.2346 4.60512 27.7773 4.86538C27.32 5.12565 26.9637 5.48683 26.7031 5.95159C26.4425 6.41635 26.3122 6.94484 26.3122 7.53708C26.3122 8.12931 26.4425 8.65781 26.7031 9.12257C26.9637 9.58733 27.32 9.95116 27.7773 10.2088C28.2346 10.469 28.7451 10.5992 29.3115 10.5992C29.8778 10.5992 30.3883 10.469 30.8457 10.2088ZM30.5027 1.9706L29.3115 0.932202L28.1203 1.9706H26.5595L28.3676 0.00268555H30.258L32.0661 1.9706H30.5053H30.5027ZM28.6335 14.9387C28.4553 14.7714 28.3676 14.5483 28.3676 14.2747C28.3676 14.0012 28.4553 13.7728 28.6335 13.5922C28.8116 13.409 29.0376 13.3187 29.3115 13.3187C29.5853 13.3187 29.8007 13.409 29.9815 13.5922C30.165 13.7755 30.2554 14.0012 30.2554 14.2747C30.2554 14.5483 30.1676 14.7687 29.9895 14.9387C29.8113 15.106 29.5853 15.191 29.3115 15.191C29.0376 15.191 28.8116 15.106 28.6335 14.9387Z" fill="#1A1A1A"/>
<path d="M38.163 11.8474C37.3733 11.4224 36.7538 10.8355 36.3018 10.0839C35.8498 9.33236 35.6238 8.48252 35.6238 7.53441C35.6238 6.58631 35.8498 5.73646 36.3018 4.98488C36.7538 4.2333 37.3733 3.64372 38.163 3.22146C38.9527 2.79654 39.8408 2.58673 40.8246 2.58673C41.6541 2.58673 42.4066 2.7328 43.0766 3.02493C43.7467 3.31707 44.3104 3.73668 44.7677 4.28376L43.3452 5.59571C42.6964 4.84944 41.8934 4.47498 40.9362 4.47498C40.3433 4.47498 39.8142 4.60511 39.3489 4.86537C38.8836 5.12564 38.5193 5.48682 38.2614 5.95158C38.0008 6.41634 37.8705 6.94483 37.8705 7.53707C37.8705 8.1293 38.0008 8.6578 38.2614 9.12256C38.522 9.58732 38.8836 9.95115 39.3489 10.2088C39.8142 10.469 40.3433 10.5992 40.9362 10.5992C41.8934 10.5992 42.6964 10.222 43.3452 9.46515L44.7677 10.7771C44.3104 11.3322 43.7467 11.7571 43.0713 12.0492C42.396 12.3413 41.6435 12.4874 40.8113 12.4874C39.8355 12.4874 38.9527 12.2749 38.163 11.8527V11.8474Z" fill="#1A1A1A"/>
<path d="M52.1194 4.55201H49.0537V2.74609H57.4053V4.55201H54.3396V12.3201H52.1221V4.55201H52.1194Z" fill="#1A1A1A"/>
<path d="M67.3841 2.74872V12.3201H65.1666V8.39487H60.8139V12.3201H58.5964V2.74872H60.8139V6.52255H65.1666V2.74872H67.3841Z" fill="#1A1A1A"/>
<path d="M69.6575 2.74872H71.875V12.3201H69.6575V2.74872Z" fill="#1A1A1A"/>
<path d="M13.967 29.7552H7.29315L6.01954 32.8306H2.61084L9.01877 18.4735H12.3052L18.7317 32.8306H15.2406L13.967 29.7552ZM12.9194 27.2322L10.6407 21.7348L8.36202 27.2322H12.922H12.9194Z" fill="#1A1A1A"/>
<path d="M33.4142 18.4735V32.8306H30.6835L23.5178 24.1143V32.8306H20.2314V18.4735H22.9834L30.1305 27.1897V18.4735H33.4169H33.4142Z" fill="#1A1A1A"/>
<path d="M45.6106 21.1797H41.0107V18.4735H53.5368V21.1797H48.9369V32.8306H45.6106V21.1797Z" fill="#1A1A1A"/>
<path d="M58.0461 32.1135C56.8469 31.4708 55.911 30.5864 55.233 29.4577C54.555 28.329 54.2173 27.0622 54.2173 25.652C54.2173 24.2418 54.555 22.975 55.233 21.8463C55.911 20.7176 56.8469 19.8332 58.0461 19.1905C59.2426 18.5478 60.588 18.2265 62.0823 18.2265C63.5766 18.2265 64.9167 18.5478 66.1078 19.1905C67.299 19.8332 68.2376 20.7176 68.9209 21.8463C69.6043 22.975 69.9473 24.2418 69.9473 25.652C69.9473 27.0622 69.6043 28.329 68.9209 29.4577C68.235 30.5864 67.299 31.4708 66.1078 32.1135C64.9167 32.7562 63.5739 33.0775 62.0823 33.0775C60.5906 33.0775 59.2452 32.7562 58.0461 32.1135ZM64.3822 29.6622C65.0656 29.2718 65.6053 28.73 65.9935 28.0316C66.3817 27.3331 66.5785 26.5417 66.5785 25.652C66.5785 24.7623 66.3844 23.9709 65.9935 23.2724C65.6027 22.574 65.0656 22.0322 64.3822 21.6418C63.6962 21.2514 62.9305 21.0575 62.0823 21.0575C61.2341 21.0575 60.4657 21.2514 59.7823 21.6418C59.0963 22.0322 58.5593 22.574 58.1711 23.2724C57.7829 23.9709 57.5861 24.7623 57.5861 25.652C57.5861 26.5417 57.7802 27.3331 58.1711 28.0316C58.5619 28.73 59.099 29.2718 59.7823 29.6622C60.4657 30.0526 61.2341 30.2465 62.0823 30.2465C62.9305 30.2465 63.6962 30.0526 64.3822 29.6622Z" fill="#1A1A1A"/>
<path d="M81.7104 29.7552H75.0366L73.7629 32.8305H70.3542L76.7622 18.4735H80.0486L86.4751 32.8305H82.984L81.7104 29.7552ZM74.0501 14.3517H77.4987L80.2719 17.305H77.7672L74.0501 14.3517ZM80.6628 27.2322L78.3841 21.7348L76.1054 27.2322H80.6654H80.6628Z" fill="#1A1A1A"/>
<path d="M101.157 18.4735V32.8306H98.4267L91.261 24.1143V32.8306H87.9746V18.4735H90.7266L97.8737 27.1897V18.4735H101.16H101.157Z" fill="#1A1A1A"/>
<path d="M113.356 21.1797H108.757V18.4735H121.283V21.1797H116.683V32.8306H113.356V21.1797Z" fill="#1A1A1A"/>
<path d="M136.252 18.4735V32.8306H132.926V26.9427H126.396V32.8306H123.069V18.4735H126.396V24.1356H132.926V18.4735H136.252Z" fill="#1A1A1A"/>
<path d="M142.586 32.1135C141.386 31.4708 140.451 30.5864 139.773 29.4577C139.095 28.329 138.757 27.0622 138.757 25.652C138.757 24.2418 139.095 22.975 139.773 21.8463C140.451 20.7176 141.386 19.8332 142.586 19.1905C143.782 18.5478 145.128 18.2265 146.622 18.2265C148.116 18.2265 149.456 18.5478 150.647 19.1905C151.839 19.8332 152.777 20.7176 153.461 21.8463C154.144 22.975 154.487 24.2418 154.487 25.652C154.487 27.0622 154.144 28.329 153.461 29.4577C152.775 30.5864 151.839 31.4708 150.647 32.1135C149.456 32.7562 148.113 33.0775 146.622 33.0775C145.13 33.0775 143.785 32.7562 142.586 32.1135ZM148.922 29.6622C149.605 29.2718 150.145 28.73 150.533 28.0316C150.921 27.3331 151.118 26.5417 151.118 25.652C151.118 24.7623 150.924 23.9709 150.533 23.2724C150.142 22.574 149.605 22.0322 148.922 21.6418C148.236 21.2514 147.47 21.0575 146.622 21.0575C145.774 21.0575 145.005 21.2514 144.322 21.6418C143.636 22.0322 143.099 22.574 142.711 23.2724C142.322 23.9709 142.126 24.7623 142.126 25.652C142.126 26.5417 142.32 27.3331 142.711 28.0316C143.101 28.73 143.639 29.2718 144.322 29.6622C145.005 30.0526 145.774 30.2465 146.622 30.2465C147.47 30.2465 148.236 30.0526 148.922 29.6622ZM148.409 17.305L146.622 15.746L144.835 17.305H142.495L145.205 14.3517H148.039L150.748 17.305H148.409Z" fill="#1A1A1A"/>
<path d="M170.174 18.4735V32.8306H167.444L160.278 24.1143V32.8306H156.991V18.4735H159.743L166.891 27.1897V18.4735H170.177H170.174Z" fill="#1A1A1A"/>
<path d="M183.296 25.4263H186.335V31.2503C185.556 31.8373 184.652 32.2887 183.626 32.6048C182.599 32.9208 181.565 33.0775 180.525 33.0775C179.034 33.0775 177.691 32.7588 176.5 32.1241C175.309 31.4894 174.375 30.605 173.697 29.479C173.019 28.3503 172.682 27.0755 172.682 25.6547C172.682 24.2338 173.019 22.9564 173.697 21.8304C174.375 20.7017 175.317 19.82 176.521 19.1852C177.726 18.5505 179.082 18.2318 180.587 18.2318C181.847 18.2318 182.99 18.4443 184.016 18.8665C185.043 19.2888 185.907 19.9049 186.604 20.7123L184.469 22.6802C183.442 21.5993 182.203 21.0602 180.751 21.0602C179.834 21.0602 179.02 21.2514 178.308 21.6338C177.595 22.0163 177.042 22.558 176.646 23.2539C176.25 23.9497 176.05 24.7517 176.05 25.6547C176.05 26.5576 176.25 27.3358 176.646 28.0342C177.042 28.7327 177.593 29.2745 178.3 29.6649C179.004 30.0553 179.81 30.2491 180.711 30.2491C181.669 30.2491 182.533 30.0446 183.299 29.633V25.4289L183.296 25.4263Z" fill="#1A1A1A"/>
<path d="M198.204 21.1797H193.604V18.4735H206.131V21.1797H201.531V32.8306H198.204V21.1797Z" fill="#1A1A1A"/>
<path d="M207.917 18.4735H211.244V32.8306H207.917V18.4735Z" fill="#1A1A1A"/>
<path d="M227.835 18.4735V32.8306H225.104L217.938 24.1143V32.8306H214.652V18.4735H217.404L224.551 27.1897V18.4735H227.838H227.835Z" fill="#1A1A1A"/>
<path d="M192.995 78.8442H171.387C170.089 78.8442 168.932 79.6648 168.507 80.8918L167.454 83.9247H176.178L170.943 99.0333C170.227 99.5379 169.746 99.8646 169.746 99.8646H177.72L182.458 86.1874L179.962 83.93H183.24V83.922H191.966L193.389 79.8189C194.213 79.2373 194.788 78.8416 194.788 78.8416H192.99L192.995 78.8442Z" stroke="white" stroke-miterlimit="10"/>
<path d="M148.228 83.922H165.083L166.526 79.625C167.199 79.1523 167.651 78.8416 167.651 78.8416H147.279C145.625 78.8416 144.242 79.301 143.128 80.2305C142.019 81.1521 141.24 82.2887 140.78 83.6299C140.78 83.6299 136.686 95.4002 135.431 98.9935C134.686 99.5193 134.178 99.8646 134.178 99.8646H135.125H156.109C157.074 99.8646 157.983 99.5884 158.853 99.0439C159.714 98.4995 160.278 97.8355 160.554 97.0574L161.333 94.7841H144.465C144.154 94.7841 144.035 94.6513 144.107 94.4017L146.975 86.121L144.556 83.9247H148.161C148.185 83.9247 148.204 83.9194 148.228 83.9194V83.922Z" stroke="white" stroke-miterlimit="10"/>
<path d="M201.331 83.9247H215.03L216.506 79.6728C217.215 79.1736 217.694 78.8442 217.694 78.8442H198.462C197.013 78.8442 195.734 79.6941 195.301 80.9449L189.05 98.9855C188.297 99.5167 187.784 99.8672 187.784 99.8672H195.811L198.109 93.2411L196.168 91.4857H200.701H210.685L212.161 87.2232H200.193L200.656 85.8847L198.497 83.93H201.334V83.9221L201.331 83.9247Z" stroke="white" stroke-miterlimit="10"/>
<path d="M55.132 38.2828H42.1779L37.7109 51.1314H20.7313L25.1982 38.2828H13.6826L2.24932 71.278C1.15917 72.0455 0.427979 72.5448 0.427979 72.5448H13.3263L16.7536 62.6149L13.2172 59.4147H17.8597V59.4094H34.842L30.3086 72.5421H41.8243L53.2389 39.6001C54.3716 38.8007 55.1347 38.2802 55.1347 38.2802L55.132 38.2828Z" stroke="white" stroke-miterlimit="10"/>
<path d="M66.9668 46.5582H94.4384L96.7916 39.5549C97.8897 38.7821 98.6262 38.2775 98.6262 38.2775H65.4246C62.7312 38.2775 60.4738 39.0291 58.6604 40.5402C56.855 42.0407 55.5841 43.8945 54.8343 46.0775C54.8343 46.0775 48.1604 65.2627 46.1158 71.1187C44.9006 71.9765 44.0737 72.5395 44.0737 72.5395H45.6185C45.6185 72.5395 45.6185 72.5395 45.6185 72.5421H79.8172C81.3886 72.5421 82.8723 72.0933 84.2895 71.2063C85.696 70.3193 86.6133 69.2357 87.0627 67.9689L88.331 64.2641H60.8407C60.3329 64.2641 60.1388 64.049 60.2557 63.64L64.9327 50.1435L60.9896 46.5662H66.8657C66.9056 46.5662 66.9349 46.5555 66.9721 46.5555L66.9668 46.5582Z" stroke="white" stroke-miterlimit="10"/>
<path d="M148.475 38.2828H135.928L117.047 58.2701L110.958 38.2828H101.205L89.7746 71.27C88.6765 72.0429 87.9399 72.5448 87.9399 72.5448H100.846L105.529 58.934L108.879 68.832H117.927L128.198 58.8862L123.463 72.5448H134.978L146.335 39.7701C147.597 38.8777 148.47 38.2828 148.47 38.2828H148.475Z" stroke="white" stroke-miterlimit="10"/>
<path d="M223.634 39.6877C224.838 38.8405 225.652 38.2828 225.652 38.2828H222.722H195.91C193.208 38.2828 190.855 39.0371 188.85 40.5429C186.846 42.0514 185.474 43.8971 184.726 46.0855L182.916 51.4156C182.131 53.6039 182.411 55.4523 183.756 56.9581C185.101 58.464 187.125 59.2182 189.829 59.2182H206.513C207.021 59.2182 207.197 59.4253 207.035 59.837L205.716 63.6427C205.593 64.0543 205.277 64.2615 204.769 64.2615L179.443 64.2429L176.675 70.9806C175.356 71.9127 174.437 72.5421 174.437 72.5421H206.008C208.71 72.5421 211.004 71.7879 212.892 70.2821C214.777 68.7763 216.112 66.9279 216.899 64.7395L218.71 59.4094C219.494 57.2211 219.215 55.3727 217.87 53.8668C216.524 52.361 214.501 51.6068 211.797 51.6068H195.112C194.602 51.6068 194.41 51.4023 194.532 50.988L194.945 49.7956L191.382 46.5741L221.462 46.5635L223.634 39.6904V39.6877Z" stroke="white" stroke-miterlimit="10"/>
<path d="M179.464 38.9255C178.792 39.1486 179.765 39.4753 179.52 39.0105C179.48 38.9361 175.779 41.73 168.441 41.329C161.778 40.9651 157.055 37.0267 156.946 37.1276C155.487 38.4794 156.579 37.5605 156.396 37.6879L151.522 40.3649C151.522 40.3649 151.626 41.977 151.65 41.3423C151.658 41.0953 151.589 48.4916 147.826 55.0672C143.08 63.3665 145.319 66.1869 151.371 69.2118C155.037 71.0443 159.14 71.0841 159.166 72.3217C159.166 72.335 159.19 72.343 159.196 72.3297C159.916 71.0841 161.174 70.46 165.883 68.6249C173.636 65.6 177.391 63.0876 177.383 54.7592C177.375 47.8144 182.405 41.3396 182.631 41.0528C182.636 41.0475 182.636 41.0581 182.631 41.0528L179.47 38.9229L179.464 38.9255ZM167.172 50.9721C166.843 52.2017 165.899 53.3012 164.758 53.8482C164.753 53.8482 164.758 53.8429 164.758 53.8482L164.436 60.801C164.428 61.0905 164.325 61.202 164.032 61.202L158.459 61.3773C158.167 61.3773 158.031 61.0958 158.188 60.8063L161.224 54.2918C161.224 54.2918 161.501 53.9624 161.496 53.9571C160.677 53.4154 160.725 52.2521 161.065 51.0438C161.573 49.2405 163.41 47.9843 165.176 48.0534C166.8 48.1171 167.624 49.2963 167.175 50.9694L167.172 50.9721Z" fill="#FCFDFF"/>
<path d="M194.269 78.9585H172.66C171.363 78.9585 170.206 79.7791 169.781 81.0061L168.728 84.0389H177.452L172.216 99.1476C171.501 99.6522 171.02 99.9788 171.02 99.9788H178.994L183.732 86.3016L181.235 84.0442H184.514V84.0363H193.24L194.663 79.9331C195.487 79.3515 196.061 78.9558 196.061 78.9558H194.264L194.269 78.9585Z" fill="#FF76E2"/>
<path d="M149.501 84.0363H166.356L167.8 79.7393C168.472 79.2665 168.924 78.9558 168.924 78.9558H148.552C146.898 78.9558 145.516 79.4153 144.401 80.3448C143.293 81.2663 142.514 82.403 142.054 83.7441C142.054 83.7441 137.959 95.5145 136.704 99.1077C135.96 99.6336 135.452 99.9788 135.452 99.9788H136.398H157.382C158.347 99.9788 159.257 99.7026 160.126 99.1582C160.988 98.6138 161.551 97.9498 161.828 97.1717L162.607 94.8983H145.739C145.428 94.8983 145.308 94.7656 145.38 94.5159L148.249 86.2353L145.829 84.0389H149.435C149.459 84.0389 149.477 84.0336 149.501 84.0336V84.0363Z" fill="#FF76E2"/>
<path d="M202.605 84.039H216.303L217.779 79.7871C218.489 79.2878 218.967 78.9585 218.967 78.9585H199.736C198.287 78.9585 197.008 79.8083 196.574 81.0592L190.323 99.0998C189.571 99.6309 189.058 99.9815 189.058 99.9815H197.085L199.382 93.3554L197.441 91.5999H201.975H211.959L213.434 87.3374H201.467L201.929 85.9989L199.77 84.0443H202.607V84.0363L202.605 84.039Z" fill="#FF76E2"/>
<path d="M57.267 38.3969H44.3129L39.846 51.2455H22.8663L27.3332 38.3969H15.8176L4.38433 71.3921C3.29418 72.1596 2.56299 72.6589 2.56299 72.6589H15.4613L18.8886 62.729L15.3523 59.5288H19.9947V59.5235H36.977L32.4436 72.6562H43.9593L55.3739 39.7142C56.5066 38.9148 57.2697 38.3943 57.2697 38.3943L57.267 38.3969Z" fill="#FF76E2"/>
<path d="M69.1018 46.6724H96.5735L98.9266 39.6691C100.025 38.8963 100.761 38.3917 100.761 38.3917H67.5596C64.8662 38.3917 62.6088 39.1433 60.7954 40.6544C58.99 42.1549 57.7191 44.0087 56.9693 46.1917C56.9693 46.1917 50.2955 65.3769 48.2508 71.2329C47.0357 72.0907 46.2087 72.6537 46.2087 72.6537H47.7536C47.7536 72.6537 47.7536 72.6537 47.7536 72.6563H81.9522C83.5236 72.6563 85.0073 72.2075 86.4245 71.3205C87.831 70.4335 88.7483 69.3499 89.1977 68.0831L90.466 64.3783H62.9757C62.4679 64.3783 62.2738 64.1632 62.3908 63.7542L67.0677 50.2577L63.1246 46.6804H69.0008C69.0406 46.6804 69.0699 46.6697 69.1071 46.6697L69.1018 46.6724Z" fill="#FF76E2"/>
<path d="M150.61 38.397H138.063L119.182 58.3843L113.093 38.397H103.34L91.9096 71.3842C90.8115 72.1571 90.075 72.659 90.075 72.659H102.981L107.664 59.0482L111.014 68.9462H120.062L130.333 59.0004L125.598 72.659H137.113L148.47 39.8843C149.732 38.9919 150.605 38.397 150.605 38.397H150.61Z" fill="#FF76E2"/>
<path d="M225.769 39.8019C226.973 38.9547 227.787 38.397 227.787 38.397H224.857H198.045C195.343 38.397 192.99 39.1513 190.985 40.6571C188.981 42.1656 187.609 44.0113 186.861 46.1997L185.051 51.5298C184.266 53.7181 184.546 55.5665 185.891 57.0723C187.236 58.5782 189.26 59.3324 191.964 59.3324H208.648C209.156 59.3324 209.332 59.5395 209.17 59.9512L207.851 63.7569C207.728 64.1685 207.412 64.3757 206.904 64.3757L181.578 64.3571L178.81 71.0948C177.492 72.0269 176.572 72.6563 176.572 72.6563H208.143C210.845 72.6563 213.139 71.9021 215.027 70.3963C216.912 68.8905 218.247 67.0421 219.034 64.8537L220.845 59.5236C221.629 57.3353 221.35 55.4868 220.005 53.981C218.659 52.4752 216.636 51.721 213.932 51.721H197.247C196.737 51.721 196.545 51.5165 196.667 51.1022L197.08 49.9098L193.517 46.6883L223.597 46.6777L225.769 39.8046V39.8019Z" fill="#FF76E2"/>
<path d="M180.071 38.4953C180.071 38.4953 180.068 38.4846 180.065 38.4873C179.906 38.5325 175.41 41.5574 167.981 41.6742C160.477 41.5574 157.757 38.4183 157.72 38.49C157.72 38.49 157.72 38.4953 157.717 38.4953L152.602 41.159C152.602 41.159 152.591 41.1696 152.591 41.1776C152.665 41.5069 154.099 48.1888 150.118 55.1097C145.33 63.4382 147.715 65.9505 153.883 68.9754C157.608 70.8026 159.127 71.1 159.164 72.327C159.164 72.3456 159.185 72.3509 159.193 72.335C159.929 71.1 161.722 71.0868 166.508 69.2569C174.415 66.232 178.345 63.4993 178.337 55.1708C178.329 48.2605 183.376 41.5308 183.655 41.1802C183.66 41.1723 183.66 41.1617 183.649 41.1537L180.071 38.4979V38.4953ZM167.888 51.3492C167.55 52.5761 166.566 53.6464 165.404 54.1935C165.399 54.1961 165.394 54.2014 165.394 54.2094L165.205 61.1516C165.197 61.441 164.899 61.7226 164.599 61.7226H158.837C158.539 61.7226 158.401 61.441 158.56 61.1516L162.354 54.2121C162.354 54.2121 162.354 54.1935 162.349 54.1882C161.514 53.6464 161.145 52.5974 161.493 51.389C162.011 49.5857 163.926 48.133 165.726 48.2021C167.382 48.2658 168.35 49.6734 167.893 51.3465L167.888 51.3492Z" fill="#FF76E2"/>
</g>
<defs>
<clipPath id="clip0_317_3751">
<rect width="227.835" height="100" fill="white"/>
</clipPath>
</defs>
</svg>
