<svg width="100" height="100" viewBox="0 0 100 100" fill="none" xmlns="http://www.w3.org/2000/svg">
<g clip-path="url(#clip0_609_1996)">
<path fill-rule="evenodd" clip-rule="evenodd" d="M0 52.9447C0 77.1811 23.5376 100.007 48.2398 100.007H52.1594C76.4956 100.007 100.007 76.9881 100.007 52.9447V48.6325C100 23.3779 77.3474 0 52.5521 0H47.4546C22.6326 0 0 23.3513 0 48.6325V52.9447Z" fill="#00AEEF"/>
<path fill-rule="evenodd" clip-rule="evenodd" d="M39.4689 32.7344V37.4393C39.4689 43.8012 43.7812 49.6706 43.7812 58.6145V60.185C43.7812 61.9352 41.7515 64.4973 40.2542 64.4973H38.6837C34.1385 64.4973 32.9473 55.0875 27.7034 55.0875H25.3543C24.3894 55.0875 23.6507 56.2721 22.22 56.658C22.2266 56.7512 25.7802 58.6678 25.6671 66.1543C26.1396 70.7593 27.0845 72.8822 29.041 76.1163C31.7428 80.5683 38.5972 85.9387 44.9657 86.4644V79.0111C44.9657 63.5257 58.2351 51.7668 58.2351 42.3771C58.2351 38.0915 53.9828 31.2172 53.9828 24.8952V19.7977C53.9828 14.5272 55.8594 11.7455 55.9393 8.03223C51.7335 8.12539 46.7225 14.3741 44.633 17.1159C41.9711 20.6162 39.4689 26.6654 39.4689 32.7344" fill="#FAFBE7"/>
<path fill-rule="evenodd" clip-rule="evenodd" d="M60.8239 23.7373L61.0368 33.5197C61.0368 53.9562 46.137 61.5027 46.137 79.0111V86.857C71.6777 89.3459 77.9331 72.27 78.685 63.326C79.4703 54.0161 77.7068 43.8345 75.9367 42.5435C75.9367 52.2926 68.7762 69.7079 61.8221 71.5646C65.9147 65.4489 70.4532 57.0108 70.4532 46.8557C70.4532 39.5555 69.3884 34.7109 67.3721 29.5402C66.3273 26.8783 61.8953 17.4619 60.0453 16.2841L60.8239 23.7373Z" fill="#FAFBE7"/>
<path fill-rule="evenodd" clip-rule="evenodd" d="M25.3676 26.0797L27.0047 31.1506L32.3351 31.1373L28.0162 34.265L29.6732 39.3292L25.3676 36.1882L21.062 39.3292L22.719 34.265L18.4001 31.1373L23.7306 31.1506L25.3676 26.0797Z" fill="#FEFDEB"/>
<path d="M12.5508 72.8289L11.3397 70.8924L9.11035 72.2832L8.46484 71.2451L13.4359 68.1373L14.0814 69.1821L12.1981 70.3533L13.4093 72.2965L15.2992 71.1186L15.9447 72.1568L10.9737 75.2645L10.3215 74.2264L12.5508 72.8289Z" fill="#FEFDEB"/>
<path d="M13.8418 74.4327C14.4806 73.9004 15.1128 73.6076 15.745 73.561C16.2375 73.5211 16.7166 73.6408 17.1758 73.907C17.5085 74.1 17.788 74.3329 18.0209 74.6124C18.2605 74.8919 18.4402 75.2113 18.5666 75.5507C18.7463 76.0565 18.7796 76.5423 18.6598 77.0214C18.5067 77.6336 18.1075 78.2059 17.4686 78.7516C16.8298 79.284 16.1976 79.5835 15.5587 79.6301C15.0663 79.67 14.5871 79.5569 14.1213 79.2907C13.7952 79.0977 13.5157 78.8714 13.2828 78.5986C13.0432 78.3124 12.8569 77.993 12.7371 77.6536C12.5574 77.1545 12.5242 76.6621 12.644 76.1829C12.8037 75.5574 13.2029 74.9784 13.8485 74.4394M14.6337 75.3777C14.0681 75.8568 13.7619 76.3493 13.722 76.855C13.6887 77.241 13.8152 77.6004 14.088 77.9265C14.3542 78.2459 14.6803 78.4189 15.0663 78.4588C15.5787 78.5054 16.1177 78.2925 16.6833 77.8133C17.2423 77.3408 17.5485 76.8551 17.5817 76.3426C17.6084 75.95 17.4952 75.604 17.229 75.2845C16.9628 74.9718 16.6368 74.7854 16.2441 74.7455C15.7317 74.6923 15.1927 74.9052 14.6337 75.3711" fill="#FEFDEB"/>
<path d="M19.1855 73.6275L18.9526 75.1248L18.3271 74.4594L18.4602 73.6209L17.615 73.6941L16.9895 73.0286L18.4934 72.8955L19.1855 73.6408V73.6275ZM13.2229 79.1642L12.5308 79.8097L11.8254 79.0578L12.5175 78.4122L13.2163 79.1642H13.2229Z" fill="#FEFDEB"/>
<path d="M19.8688 77.111L15.7231 81.2566L16.589 82.1224L20.7346 77.9768L19.8688 77.111Z" fill="#FEFDEB"/>
<path d="M20.1438 83.0838L21.0688 83.8092C20.9224 84.0022 20.8559 84.2018 20.8692 84.4081C20.8958 84.7275 21.0888 85.027 21.4614 85.3198C21.7409 85.5394 21.9872 85.6725 22.2001 85.7191C22.4863 85.7856 22.7192 85.7058 22.8922 85.4795C23.0186 85.3131 23.0453 85.1268 22.9587 84.9205C22.9055 84.7741 22.7524 84.5479 22.5129 84.2484L22.1003 83.7426C21.6944 83.2435 21.4481 82.8642 21.3683 82.598C21.2285 82.1522 21.335 81.6996 21.6944 81.2471C21.9738 80.8878 22.3199 80.6748 22.7325 80.595C23.3048 80.4885 23.9303 80.6881 24.5891 81.2072C25.2213 81.6996 25.5541 82.252 25.6007 82.8576C25.6339 83.3234 25.5075 83.7426 25.2213 84.1086L24.2963 83.3833C24.4161 83.1836 24.476 82.9973 24.4694 82.8309C24.456 82.5315 24.2697 82.2387 23.9037 81.9525C23.6841 81.7795 23.4712 81.6797 23.2582 81.6464C23.0053 81.6065 22.8057 81.6797 22.6593 81.8727C22.5328 82.0324 22.4929 82.1987 22.5462 82.3651C22.5728 82.4649 22.646 82.5847 22.7658 82.7444L23.6841 83.8957C23.9902 84.2883 24.1766 84.6344 24.2431 84.9205C24.323 85.3198 24.2165 85.7058 23.9237 86.0917C23.5577 86.5576 23.1185 86.8038 22.606 86.8171C22.0404 86.8371 21.4747 86.6241 20.9091 86.1849C20.1638 85.6059 19.7778 85.0004 19.7312 84.3615C19.7046 83.909 19.8443 83.4831 20.1571 83.0838" fill="#FEFDEB"/>
<path d="M26.7963 83.136L23.6895 88.1079L24.7279 88.7568L27.8347 83.7849L26.7963 83.136Z" fill="#FEFDEB"/>
<path d="M31.8093 86.2381L32.8009 86.8038L29.8661 91.8813L28.808 91.2691L28.8347 86.4577L26.7251 90.0712L25.7402 89.4989L28.6683 84.4214L29.7863 85.0669L29.753 89.7584L31.8093 86.2381Z" fill="#FEFDEB"/>
<path d="M35.3763 91.3356L33.2535 90.4772L32.2686 92.9194L31.1306 92.4536L33.3267 87.0167L34.4646 87.4759L33.6328 89.5389L35.749 90.3907L36.5875 88.3344L37.7188 88.7935L35.5227 94.2304L34.3848 93.7712L35.3763 91.3356Z" fill="#FEFDEB"/>
<path d="M43.6348 90.0978L44.8859 90.3241L41.9046 95.7477L40.7666 95.548L39.835 89.4324L41.126 89.6586L41.5918 94.2504L43.6348 90.0978Z" fill="#FEFDEB"/>
<path d="M45.2117 90.2619L44.8027 96.1104L46.0242 96.1958L46.4332 90.3473L45.2117 90.2619Z" fill="#FEFDEB"/>
<path d="M51.5339 90.4572V91.482H48.4262V92.7264H51.2877V93.7579H48.4262V95.2752H51.6803V96.3199H47.2217V90.4572H51.5339Z" fill="#FEFDEB"/>
<path d="M49.6041 88.7269L50.5557 89.8982L49.644 89.9115L49.105 89.2526L48.5926 89.9314L47.6809 89.9514L48.5926 88.7402L49.6041 88.7269Z" fill="#FEFDEB"/>
<path d="M56.1523 90.1909L57.2903 90.0978L57.8027 95.9406L56.5849 96.0404L53.8431 92.0875L54.1892 96.2534L53.0512 96.3532L52.5388 90.5104L53.8232 90.3972L56.4917 94.2636L56.1523 90.1909Z" fill="#FEFDEB"/>
<path d="M63.0932 88.5539L64.311 88.1813L64.118 94.3768L63.0067 94.7162L59.4065 89.6852L60.6509 89.2993L63.1531 93.1856L63.0932 88.5539Z" fill="#FEFDEB"/>
<path d="M65.7675 87.4437L64.6321 87.9022L66.8299 93.3447L67.9652 92.8862L65.7675 87.4437Z" fill="#FEFDEB"/>
<path d="M70.1803 85.1534L70.6595 86.0585L67.9177 87.5159L68.5033 88.6139L71.0255 87.2696L71.5113 88.1813L68.9891 89.5189L69.7012 90.8632L72.5694 89.3392L73.0618 90.2576L69.1222 92.3538L66.3672 87.1765L70.1803 85.1534Z" fill="#FEFDEB"/>
<path d="M67.4053 84.6343L68.8161 85.18L68.0308 85.6524L67.2322 85.3463L67.1324 86.1915L66.3472 86.664L66.5335 85.16L67.4053 84.6409V84.6343ZM71.5844 91.615L72.0769 92.4269L71.1918 92.9593L70.706 92.1474L71.5911 91.615H71.5844Z" fill="#FEFDEB"/>
<path d="M73.6276 84.1152L76.2562 88.1679L75.2314 88.8334L72.5961 84.7807L71.1054 85.7522L70.5398 84.8871L74.5459 82.2852L75.1049 83.1503L73.6276 84.1152Z" fill="#FEFDEB"/>
<path d="M78.9711 78.2191L79.8096 77.4406L83.8024 81.7328L82.9106 82.5647L78.3123 81.1339L81.1538 84.2017L80.3153 84.987L76.3225 80.6947L77.2608 79.8163L81.7394 81.2138L78.9711 78.2191Z" fill="#FEFDEB"/>
<path d="M84.5212 79.0378L85.1867 80.1292L84.3549 81.1207L81.2139 75.7437L82.1322 74.6523L87.9351 76.8617L87.0833 77.8732L85.9121 77.3808L84.5146 79.0444L84.5212 79.0378ZM83.9556 78.1327L84.9205 76.9815L82.6712 76.0565L83.9556 78.1327V78.1327Z" fill="#FEFDEB"/>
<path d="M86.4445 68.3037L91.4156 71.4114L90.81 72.3764L86.6575 69.7811L90.2244 73.3213L89.5855 74.3462L84.8673 72.6492L89.0132 75.2579L88.4076 76.2294L83.4299 73.1217L84.3749 71.6111L88.8535 73.1616L85.4995 69.8143L86.4445 68.3037Z" fill="#FEFDEB"/>
</g>
<defs>
<clipPath id="clip0_609_1996">
<rect width="100" height="100" fill="white"/>
</clipPath>
</defs>
</svg>
