<svg width="242" height="100" viewBox="0 0 242 100" fill="none" xmlns="http://www.w3.org/2000/svg">
<g clip-path="url(#clip0_317_3658)">
<path d="M23.0038 17.4712L44.379 38.8464L56.2572 26.9682C62.4039 20.8214 62.4039 10.7614 56.2572 4.6147C50.1104 -1.53205 40.0504 -1.53205 33.9037 4.6147L21.2041 17.3143C21.7579 16.9267 22.5147 16.982 23.0131 17.4712H23.0038Z" fill="#FFCD67"/>
<path d="M10.2028 73.0319C4.05609 79.1786 4.05609 89.2386 10.2028 95.3853C16.3496 101.532 26.4096 101.532 32.5563 95.3853L44.3883 83.5533L22.0349 61.1998L10.2028 73.0319Z" fill="#4B5EAA"/>
<path d="M55.5372 49.9954L44.3882 38.8464L23.013 17.4712C22.5238 16.982 21.7578 16.9267 21.204 17.3143L10.7841 27.7342C9.26126 29.2571 8.12605 31.0107 7.36002 32.8934C6.60321 34.7855 6.21558 36.7975 6.21558 38.8095C6.21558 42.815 7.73842 46.8205 10.7841 49.8662L22.0254 61.1999L22.0716 61.246L44.3789 83.5533L55.5188 72.4135C61.684 66.2483 61.684 56.1606 55.528 49.9862L55.5372 49.9954Z" fill="#56C5D0"/>
<path d="M62.4963 48.2511C63.7146 49.4693 65.7543 49.2663 66.7049 47.8265L67.0003 47.3097C70.0829 41.8921 70.1198 35.2654 67.1018 29.8201C66.2711 28.3157 64.2315 28.0296 63.0132 29.2478L53.2485 39.0125L62.4963 48.2603V48.2511Z" fill="#FFCD67"/>
<path d="M6.22492 53.7333C5.26507 52.7734 3.65916 52.9303 2.91158 54.0655L2.68085 54.4716C0.253531 58.7356 0.225843 63.9594 2.59779 68.2511C3.25307 69.4324 4.85898 69.6631 5.81883 68.7033L13.5069 61.0152L6.22492 53.7333Z" fill="#4B5EAA"/>
<path d="M19.755 42.8335C22.2527 42.8335 24.2774 40.8087 24.2774 38.3111C24.2774 35.8134 22.2527 33.7887 19.755 33.7887C17.2574 33.7887 15.2327 35.8134 15.2327 38.3111C15.2327 40.8087 17.2574 42.8335 19.755 42.8335Z" fill="#4B5EAA"/>
<path d="M104.794 81.2737C92.4178 81.2737 82.7454 75.1269 82.3394 63.4887H97.254C97.6601 67.9188 100.447 70.0416 104.388 70.0416C108.329 70.0416 111.107 67.9927 111.107 64.6332C111.107 53.9825 82.3394 59.7139 82.5055 39.3078C82.5055 28.408 91.4395 22.3443 103.484 22.3443C115.528 22.3443 124.462 28.5741 125.034 39.557H109.871C109.621 35.8653 107 33.6595 103.235 33.5764C99.8751 33.4934 97.337 35.2192 97.337 38.8187C97.337 48.8141 125.773 44.3101 125.773 63.5718C125.773 73.2442 118.232 81.2737 104.794 81.2737Z" fill="#4B5EAA"/>
<path d="M170.535 70.5307H149.068L145.625 80.6922H130.96L151.772 23.1657H167.997L188.809 80.6922H173.978L170.535 70.5307ZM159.801 38.6526L152.75 59.7139H166.926L159.792 38.6526H159.801Z" fill="#4B5EAA"/>
<path d="M221.915 80.6922H195.113V23.1657H221.01C232.732 23.1657 239.7 28.9802 239.7 38.0803C239.7 45.0485 235.519 49.5524 229.944 51.1952C236.663 52.5889 241.01 58.4864 241.01 65.0485C241.01 74.5547 234.042 80.7015 221.915 80.7015V80.6922ZM218.306 34.3886H209.132V46.4329H218.306C222.893 46.4329 225.431 44.384 225.431 40.4523C225.431 36.5206 222.893 34.3886 218.306 34.3886ZM219.294 56.6775H209.132V69.3771H219.46C224.13 69.3771 226.834 67.2451 226.834 63.1473C226.834 59.0494 223.964 56.6775 219.294 56.6775Z" fill="#4B5EAA"/>
<path d="M104.296 70.0508C100.364 70.0508 97.5771 67.9188 97.171 63.498H82.2563C82.4963 70.4015 86.0035 75.3761 91.4026 78.2741C92.9162 78.1818 94.4206 78.0342 95.925 77.8865C95.9712 77.8865 96.0081 77.8865 96.0542 77.8773C96.1096 77.868 96.1742 77.8496 96.248 77.8311C96.9587 77.6835 97.6786 77.5912 98.3985 77.462C101.62 76.8713 104.804 76.1145 107.951 75.21C113.664 73.5672 119.257 71.4721 124.758 69.2386C125.367 67.4481 125.69 65.5469 125.69 63.581C125.69 44.3194 97.254 48.8325 97.254 38.8279C97.254 35.2192 99.7921 33.5026 103.152 33.5856C106.917 33.6687 109.548 35.8837 109.787 39.5663H124.951C124.379 28.5833 115.934 22.3535 103.401 22.3535C90.8673 22.3535 82.4225 28.4172 82.4225 39.3171C82.2563 59.7232 111.024 53.9825 111.024 64.6424C111.024 68.0019 108.403 70.0508 104.305 70.0508H104.296Z" fill="#56C5D0"/>
<path d="M143.659 62.7688C146.723 61.4767 149.788 60.2492 152.861 59.114L159.7 38.6618L165.274 55.1269C169.566 53.9825 173.941 53.0872 178.454 52.5058C178.472 52.5058 178.491 52.5058 178.509 52.5058L167.895 23.1749H151.67L136.202 65.9345C138.685 64.8731 141.167 63.8118 143.659 62.7688Z" fill="#56C5D0"/>
<path d="M215.953 53.8902C221.721 54.7024 227.462 55.6715 233.156 56.862C235.214 57.2958 237.263 57.7665 239.285 58.3572C237.439 54.8131 234.135 52.0905 229.852 51.2045C235.427 49.5616 239.608 45.0577 239.608 38.0896C239.608 28.9894 232.639 23.1749 220.927 23.1749H195.03V51.8505C202.026 52.0997 209.003 52.9119 215.953 53.8902ZM209.04 34.407H218.214C222.801 34.407 225.339 36.539 225.339 40.4707C225.339 44.4024 222.801 46.4513 218.214 46.4513H209.04V34.407Z" fill="#56C5D0"/>
<path d="M93.0177 54.2502C95.1405 54.2502 97.254 54.1856 99.3675 54.0379C101.121 53.9179 102.875 53.7241 104.619 53.5487C104.665 53.5487 104.711 53.5395 104.757 53.5303C104.785 53.5303 104.804 53.5303 104.841 53.5118C105.708 53.3641 106.585 53.2442 107.452 53.0965C111.135 52.4781 114.781 51.7121 118.417 50.8815C109.991 45.7038 97.2448 45.51 97.2448 38.8187C97.2448 35.21 99.7829 33.4934 103.142 33.5764C106.908 33.6595 109.538 35.8745 109.778 39.557H124.942C124.37 28.5741 115.925 22.3443 103.392 22.3443C90.8581 22.3443 82.4132 28.408 82.4132 39.3078C82.3486 47.7712 87.2494 51.7305 93.0177 54.2317V54.2502Z" fill="#FFCD67"/>
<path d="M158.528 42.2058L159.709 38.671L160.752 41.7444C165.071 40.8768 169.409 40.0831 173.765 39.3724L167.905 23.1749H151.679L143.548 45.6392C148.523 44.4209 153.507 43.2395 158.528 42.1966V42.2058Z" fill="#FFCD67"/>
<path d="M202.358 36.4375C204.564 36.3637 206.788 36.336 209.04 36.3637V34.407H218.214C221.453 34.407 223.659 35.4684 224.693 37.4804C229.677 38.1541 234.624 39.1694 239.414 40.5815C239.534 39.797 239.598 38.9663 239.598 38.0988C239.598 28.9986 232.63 23.1841 220.918 23.1841H195.021V36.8343C197.466 36.659 199.903 36.5206 202.349 36.4375H202.358Z" fill="#FFCD67"/>
</g>
<defs>
<clipPath id="clip0_317_3658">
<rect width="240.175" height="100" fill="white" transform="translate(0.834961)"/>
</clipPath>
</defs>
</svg>
