<?xml version="1.0" encoding="UTF-8"?><svg id="Layer_2" xmlns="http://www.w3.org/2000/svg" viewBox="0 0 957.27 424.23"><defs><style>.cls-1{fill:#404e63;}.cls-2{fill:#fff;}.cls-3{fill:#f9b253;}.cls-4{fill:#384556;}.cls-5{fill:#3e96c6;}</style></defs><g id="Layer_4"><g><polygon class="cls-5" points="716.11 370.36 346.42 370.36 346.42 280.27 780.25 280.27 716.11 370.36"/><polygon class="cls-3" points="874.25 148.24 346.42 148.24 346.42 50.38 943.92 50.38 874.25 148.24"/><circle class="cls-4" cx="212.11" cy="212.11" r="212.11"/><circle class="cls-2" cx="212.11" cy="212.11" r="184.32"/><polygon class="cls-2" points="850.84 285.12 211.81 285.12 317.43 135.62 957.27 135.62 923.22 183.45 794.74 183.45 794.74 236.61 885.37 236.61 850.84 285.12"/><path class="cls-1" d="M201.71,99.39c46.16,0,81.57,10.41,106.24,31.22,23.53,20.37,35.3,48.05,35.3,83.03v.66c0,35.65-12,63.88-35.98,84.69-25.57,21.92-61.66,32.88-108.28,32.88H110.75V99.39h90.97Zm-11.54,164.74h13.24c39.82,0,59.74-16.05,59.74-48.16v-.66c0-32.1-19.91-48.16-59.74-48.16h-13.24v96.98Z"/><g><path class="cls-1" d="M442.41,175.25v21.6h-40.05v7.99h37.32v19.01h-37.32v8.55h40.6v21.6h-65.7v-78.74h65.15Z"/><path class="cls-1" d="M473.07,225.42c7.71,6.15,16.62,9.22,26.74,9.22,4.37,0,6.55-1.12,6.55-3.38v-.22c0-2.03-3.53-3.75-10.59-5.17-10.26-2.1-17.75-4.69-22.48-7.76-6.48-4.2-9.71-10.05-9.71-17.55v-.23c0-7.8,2.76-14.1,8.29-18.9,5.96-5.1,14-7.65,24.12-7.65,14.11,0,25.61,3.6,34.48,10.8l-12.44,17.77c-6.91-5.17-14.55-7.76-22.92-7.76-3.71,0-5.57,1.09-5.57,3.26v.22c0,2.02,3.38,3.71,10.15,5.06,10.91,2.02,18.81,4.72,23.68,8.1,5.96,4.13,8.95,9.9,8.95,17.32v.22c0,8.25-3.06,14.78-9.17,19.57-5.97,4.72-14.15,7.09-24.55,7.09-16.37,0-29.43-4.42-39.18-13.27l13.64-16.76Z"/><path class="cls-1" d="M576.96,175.25v78.74h-25.54v-78.74h25.54Z"/><path class="cls-1" d="M604.9,244.43c-8.37-7.72-12.55-17.59-12.55-29.59v-.23c0-11.77,4-21.56,12-29.36,8-7.8,18.04-11.7,30.12-11.7s23.17,3.98,31.97,11.92l-14.3,17.77c-5.17-4.57-10.8-6.86-16.92-6.86-4.95,0-9.06,1.76-12.33,5.29-3.2,3.53-4.8,7.95-4.8,13.27v.23c0,5.55,1.71,10.09,5.13,13.61,3.34,3.45,7.71,5.17,13.09,5.17,3.78,0,6.69-.6,8.73-1.8v-7.88h-13.1v-16.87h37v36.45c-9.38,7.87-20.62,11.81-33.72,11.81-12.22,0-22.34-3.75-30.34-11.25Z"/><path class="cls-1" d="M712.17,175.25l27.17,34.76v-34.76h25.32v78.74h-22.7l-28.37-36.33v36.33h-25.32v-78.74h23.9Z"/></g></g></g></svg>